<svg width="275" height="275" viewBox="0 0 275 275" fill="none" xmlns="http://www.w3.org/2000/svg">
<circle cx="137.5" cy="137.5" r="137.5" fill="#09B1FE"/>
<path d="M195.765 159.947V203.627H80.2349V159.947H195.765Z" fill="#1D2032" stroke="black"/>
<path d="M111.289 54.5H164.711C169.405 54.5001 173.211 58.3056 173.211 63V115.596C173.211 120.29 169.399 124.096 164.704 124.096H111.296C106.601 124.096 102.789 120.29 102.789 115.596V63L102.8 62.5625C103.028 58.0714 106.741 54.5 111.289 54.5Z" fill="#1D2032" stroke="black"/>
<path d="M145.958 127.777V150.905H130.042V127.777H145.958Z" fill="#1D2032" stroke="black"/>
<path d="M113.566 153.83C113.566 150.516 116.253 147.83 119.566 147.83H156.434C159.747 147.83 162.434 150.516 162.434 153.83V163.277C162.434 166.59 159.743 169.277 156.429 169.277C142.815 169.277 133.185 169.277 119.571 169.277C116.257 169.277 113.566 166.59 113.566 163.277V153.83Z" fill="#1D2032"/>
<rect x="60" y="141.574" width="15.0361" height="80.4255" rx="7" fill="#1D2032"/>
<rect x="200.964" y="141.574" width="15.0361" height="80.4255" rx="7" fill="#1D2032"/>
<ellipse cx="138" cy="90" rx="18" ry="17" fill="#09B1FE"/>
</svg>
