<svg width="166" height="414" viewBox="0 0 166 414" fill="none" xmlns="http://www.w3.org/2000/svg">
<path d="M26.0065 97.144H16.3344C9.70698 97.144 4.3344 91.7714 4.3344 85.144V54.4092C4.3344 47.7818 9.70698 42.4092 16.3344 42.4092H26.0065L26.0065 97.144Z" fill="#C2C2C2"/>
<path d="M6.50162 69.7766C6.50162 76.3481 5.69304 81.6754 4.69561 81.6754C3.69818 81.6754 0 79.409 0 69.7766C0 60.1441 3.69818 57.8777 4.69561 57.8777C5.69304 57.8777 6.50162 63.205 6.50162 69.7766Z" fill="#09DADA"/>
<path d="M139.762 42.3653L149.434 42.3653C156.061 42.3653 161.434 47.7379 161.434 54.3653L161.434 85.1001C161.434 91.7275 156.061 97.1001 149.434 97.1001L139.762 97.1001L139.762 42.3653Z" fill="#C2C2C2"/>
<path d="M159.266 69.7327C159.266 63.1611 160.075 57.8338 161.072 57.8338C162.07 57.8338 165.768 60.1002 165.768 69.7327C165.768 79.3651 162.07 81.6315 161.072 81.6315C160.075 81.6315 159.266 76.3042 159.266 69.7327Z" fill="#09DADA"/>
<path d="M26.0065 374.388H16.3344C9.70698 374.388 4.3344 369.015 4.3344 362.388V331.653C4.3344 325.026 9.70698 319.653 16.3344 319.653H26.0065L26.0065 374.388Z" fill="#C2C2C2"/>
<path d="M6.50162 347.02C6.50162 353.592 5.69304 358.919 4.69561 358.919C3.69818 358.919 0 356.653 0 347.02C0 337.388 3.69818 335.121 4.69561 335.121C5.69304 335.121 6.50162 340.449 6.50162 347.02Z" fill="#09DADA"/>
<path d="M139.762 319.609L149.434 319.609C156.061 319.609 161.434 324.982 161.434 331.609L161.434 362.344C161.434 368.971 156.061 374.344 149.434 374.344L139.762 374.344L139.762 319.609Z" fill="#C2C2C2"/>
<path d="M159.266 346.976C159.266 340.405 160.075 335.078 161.072 335.078C162.07 335.078 165.768 337.344 165.768 346.976C165.768 356.609 162.07 358.875 161.072 358.875C160.075 358.875 159.266 353.548 159.266 346.976Z" fill="#09DADA"/>
<g filter="url(#filter1_d_74_40)">
<path d="M126.279 4.00001C126.279 1.79087 128.07 0 130.279 0H144.13C146.34 0 148.13 1.79086 148.13 4V402C148.13 404.209 146.34 406 144.13 406H130.279C128.07 406 126.279 404.209 126.279 402V4.00001Z" fill="#70A4CF"/>
<path d="M17.3204 4.00001C17.3204 1.79087 19.1112 7.62939e-06 21.3204 7.62939e-06H35.1715C37.3806 7.62939e-06 39.1715 1.79087 39.1715 4.00001V402C39.1715 404.209 37.3806 406 35.1715 406H21.3204C19.1112 406 17.3204 404.209 17.3204 402V4.00001Z" fill="#70A4CF"/>
</g>
<foreignObject x="39.5219" y="11.8756" width="12.5976" height="389.31"><div xmlns="http://www.w3.org/1999/xhtml" style="backdrop-filter:blur(2px);clip-path:url(#bgblur_0_74_40_clip_path);height:100%;width:100%"></div></foreignObject><rect data-figma-bg-blur-radius="4" x="43.5219" y="15.8756" width="4.59763" height="381.31" rx="2.29882" fill="#A8B1E8" fill-opacity="0.91"/>
<foreignObject x="48.7172" y="11.8756" width="12.5976" height="389.31"><div xmlns="http://www.w3.org/1999/xhtml" style="backdrop-filter:blur(2px);clip-path:url(#bgblur_1_74_40_clip_path);height:100%;width:100%"></div></foreignObject><rect data-figma-bg-blur-radius="4" x="52.7172" y="15.8756" width="4.59763" height="381.31" rx="2.29882" fill="#A8B1E8" fill-opacity="0.91"/>
<foreignObject x="57.9125" y="11.8756" width="12.5976" height="389.31"><div xmlns="http://www.w3.org/1999/xhtml" style="backdrop-filter:blur(2px);clip-path:url(#bgblur_2_74_40_clip_path);height:100%;width:100%"></div></foreignObject><rect data-figma-bg-blur-radius="4" x="61.9125" y="15.8756" width="4.59763" height="381.31" rx="2.29882" fill="#A8B1E8" fill-opacity="0.91"/>
<foreignObject x="67.1077" y="11.8756" width="12.5976" height="389.31"><div xmlns="http://www.w3.org/1999/xhtml" style="backdrop-filter:blur(2px);clip-path:url(#bgblur_3_74_40_clip_path);height:100%;width:100%"></div></foreignObject><rect data-figma-bg-blur-radius="4" x="71.1077" y="15.8756" width="4.59763" height="381.31" rx="2.29882" fill="#A8B1E8" fill-opacity="0.91"/>
<foreignObject x="76.303" y="11.8756" width="12.5976" height="389.31"><div xmlns="http://www.w3.org/1999/xhtml" style="backdrop-filter:blur(2px);clip-path:url(#bgblur_4_74_40_clip_path);height:100%;width:100%"></div></foreignObject><rect data-figma-bg-blur-radius="4" x="80.303" y="15.8756" width="4.59763" height="381.31" rx="2.29882" fill="#A8B1E8" fill-opacity="0.91"/>
<foreignObject x="85.4983" y="11.8756" width="12.5976" height="389.31"><div xmlns="http://www.w3.org/1999/xhtml" style="backdrop-filter:blur(2px);clip-path:url(#bgblur_5_74_40_clip_path);height:100%;width:100%"></div></foreignObject><rect data-figma-bg-blur-radius="4" x="89.4983" y="15.8756" width="4.59763" height="381.31" rx="2.29882" fill="#A8B1E8" fill-opacity="0.91"/>
<foreignObject x="94.6935" y="11.8756" width="12.5976" height="389.31"><div xmlns="http://www.w3.org/1999/xhtml" style="backdrop-filter:blur(2px);clip-path:url(#bgblur_6_74_40_clip_path);height:100%;width:100%"></div></foreignObject><rect data-figma-bg-blur-radius="4" x="98.6935" y="15.8756" width="4.59763" height="381.31" rx="2.29882" fill="#A8B1E8" fill-opacity="0.91"/>
<foreignObject x="103.889" y="11.8756" width="12.5976" height="389.31"><div xmlns="http://www.w3.org/1999/xhtml" style="backdrop-filter:blur(2px);clip-path:url(#bgblur_7_74_40_clip_path);height:100%;width:100%"></div></foreignObject><rect data-figma-bg-blur-radius="4" x="107.889" y="15.8756" width="4.59763" height="381.31" rx="2.29882" fill="#A8B1E8" fill-opacity="0.91"/>
<foreignObject x="113.084" y="11.8756" width="12.5976" height="389.31"><div xmlns="http://www.w3.org/1999/xhtml" style="backdrop-filter:blur(2px);clip-path:url(#bgblur_8_74_40_clip_path);height:100%;width:100%"></div></foreignObject><rect data-figma-bg-blur-radius="4" x="117.084" y="15.8756" width="4.59763" height="381.31" rx="2.29882" fill="#A8B1E8" fill-opacity="0.91"/>
<defs>
<filter id="filter1_d_74_40" x="13.3204" y="0" width="138.81" height="414" filterUnits="userSpaceOnUse" color-interpolation-filters="sRGB">
<feFlood flood-opacity="0" result="BackgroundImageFix"/>
<feColorMatrix in="SourceAlpha" type="matrix" values="0 0 0 0 0 0 0 0 0 0 0 0 0 0 0 0 0 0 127 0" result="hardAlpha"/>
<feOffset dy="4"/>
<feGaussianBlur stdDeviation="2"/>
<feComposite in2="hardAlpha" operator="out"/>
<feColorMatrix type="matrix" values="0 0 0 0 0 0 0 0 0 0 0 0 0 0 0 0 0 0 0.25 0"/>
<feBlend mode="normal" in2="BackgroundImageFix" result="effect1_dropShadow_74_40"/>
<feBlend mode="normal" in="SourceGraphic" in2="effect1_dropShadow_74_40" result="shape"/>
</filter>
<clipPath id="bgblur_0_74_40_clip_path" transform="translate(-39.5219 -11.8756)"><rect x="43.5219" y="15.8756" width="4.59763" height="381.31" rx="2.29882"/>
</clipPath><clipPath id="bgblur_1_74_40_clip_path" transform="translate(-48.7172 -11.8756)"><rect x="52.7172" y="15.8756" width="4.59763" height="381.31" rx="2.29882"/>
</clipPath><clipPath id="bgblur_2_74_40_clip_path" transform="translate(-57.9125 -11.8756)"><rect x="61.9125" y="15.8756" width="4.59763" height="381.31" rx="2.29882"/>
</clipPath><clipPath id="bgblur_3_74_40_clip_path" transform="translate(-67.1077 -11.8756)"><rect x="71.1077" y="15.8756" width="4.59763" height="381.31" rx="2.29882"/>
</clipPath><clipPath id="bgblur_4_74_40_clip_path" transform="translate(-76.303 -11.8756)"><rect x="80.303" y="15.8756" width="4.59763" height="381.31" rx="2.29882"/>
</clipPath><clipPath id="bgblur_5_74_40_clip_path" transform="translate(-85.4983 -11.8756)"><rect x="89.4983" y="15.8756" width="4.59763" height="381.31" rx="2.29882"/>
</clipPath><clipPath id="bgblur_6_74_40_clip_path" transform="translate(-94.6935 -11.8756)"><rect x="98.6935" y="15.8756" width="4.59763" height="381.31" rx="2.29882"/>
</clipPath><clipPath id="bgblur_7_74_40_clip_path" transform="translate(-103.889 -11.8756)"><rect x="107.889" y="15.8756" width="4.59763" height="381.31" rx="2.29882"/>
</clipPath><clipPath id="bgblur_8_74_40_clip_path" transform="translate(-113.084 -11.8756)"><rect x="117.084" y="15.8756" width="4.59763" height="381.31" rx="2.29882"/>
</clipPath></defs>
</svg>
