<svg width="275" height="275" viewBox="0 0 275 275" fill="none" xmlns="http://www.w3.org/2000/svg">
<circle cx="137.5" cy="137.5" r="137.5" fill="#FEC909"/>
<path d="M143.147 71.2988V106.861H132.853V71.2988H143.147Z" fill="#1D2032" stroke="black"/>
<path d="M82.4706 151.828H193.529V202.225C150.158 202.225 125.842 202.225 82.4706 202.225V151.828Z" fill="#1D2032"/>
<path d="M95.1176 70.2988H180.882C184.472 70.2988 187.382 67.3887 187.382 63.7988V61C187.382 57.4104 184.471 54.5002 180.881 54.5H95.1186C91.5288 54.5002 88.6177 57.4104 88.6176 61V63.7988C88.6176 67.3887 91.5278 70.2988 95.1176 70.2988Z" fill="#1D2032" stroke="black"/>
<path d="M58 147.923C58 145.714 59.7909 143.923 62 143.923H73.8046C76.0137 143.923 77.8046 145.714 77.8046 147.923V207.118C77.8046 209.327 76.0133 211.118 73.8042 211.118C69.5882 211.118 66.2163 211.118 62.0004 211.118C59.7912 211.118 58 209.327 58 207.118V147.923Z" fill="#1D2032"/>
<path d="M198.195 147.923C198.195 145.714 199.986 143.923 202.195 143.923H214C216.209 143.923 218 145.714 218 147.923V207.118C218 209.327 216.209 211.118 214 211.118C209.784 211.118 206.412 211.118 202.196 211.118C199.987 211.118 198.195 209.327 198.195 207.118V147.923Z" fill="#1D2032"/>
<path d="M101.294 150.053C101.294 140.664 108.905 133.053 118.294 133.053H156.765C166.154 133.053 173.765 140.664 173.765 150.053V204C173.765 213.389 166.153 221 156.764 221C143.198 221 131.861 221 118.295 221C108.906 221 101.294 213.389 101.294 204V150.053Z" fill="#1D2032"/>
<path d="M119.575 113.93C121.306 107.39 127.582 103.408 134.347 103.408H140.712C147.477 103.408 153.752 107.39 155.484 113.93C157.363 121.026 158.123 129.101 151.852 129.101C140.665 129.101 134.394 129.101 123.207 129.101C116.936 129.101 117.696 121.026 119.575 113.93Z" fill="#1D2032"/>
</svg>
